<mxfile host="65bd71144e">
    <diagram name="Page-1" id="e7e014a7-5840-1c2e-5031-d8a46d1fe8dd">
        <mxGraphModel dx="1053" dy="481" grid="1" gridSize="10" guides="1" tooltips="1" connect="1" arrows="1" fold="1" page="1" pageScale="1" pageWidth="1169" pageHeight="826" background="none" math="0" shadow="0">
            <root>
                <mxCell id="0"/>
                <mxCell id="1" parent="0"/>
                <mxCell id="3" value="" style="swimlane;whiteSpace=wrap" parent="1" vertex="1">
                    <mxGeometry x="450" y="128" width="390" height="570" as="geometry"/>
                </mxCell>
                <mxCell id="13" value="" style="ellipse;shape=startState;fillColor=#000000;strokeColor=#ff0000;" parent="3" vertex="1">
                    <mxGeometry x="180" y="22" width="30" height="30" as="geometry"/>
                </mxCell>
                <mxCell id="14" value="" style="edgeStyle=elbowEdgeStyle;elbow=horizontal;verticalAlign=bottom;endArrow=open;endSize=8;strokeColor=#FF0000;endFill=1;rounded=0" parent="3" source="13" target="15" edge="1">
                    <mxGeometry x="40" y="20" as="geometry">
                        <mxPoint x="55" y="90" as="targetPoint"/>
                    </mxGeometry>
                </mxCell>
                <mxCell id="15" value="Guess Strategy" style="" parent="3" vertex="1">
                    <mxGeometry x="140" y="112" width="110" height="50" as="geometry"/>
                </mxCell>
                <mxCell id="2" value="" style="swimlane;whiteSpace=wrap" parent="3" vertex="1">
                    <mxGeometry x="-280" width="280" height="570" as="geometry"/>
                </mxCell>
                <mxCell id="42KRZFq9cMdBP3T2XgEV-54" value="" style="edgeStyle=orthogonalEdgeStyle;rounded=0;orthogonalLoop=1;jettySize=auto;html=1;" parent="2" source="42KRZFq9cMdBP3T2XgEV-45" target="42KRZFq9cMdBP3T2XgEV-53" edge="1">
                    <mxGeometry relative="1" as="geometry"/>
                </mxCell>
                <mxCell id="42KRZFq9cMdBP3T2XgEV-45" value="Closer/Low Guess" style="whiteSpace=wrap;html=1;" parent="2" vertex="1">
                    <mxGeometry x="85.5" y="57" width="120" height="60" as="geometry"/>
                </mxCell>
                <mxCell id="42KRZFq9cMdBP3T2XgEV-58" value="" style="edgeStyle=orthogonalEdgeStyle;rounded=0;orthogonalLoop=1;jettySize=auto;html=1;" parent="2" source="42KRZFq9cMdBP3T2XgEV-53" target="42KRZFq9cMdBP3T2XgEV-57" edge="1">
                    <mxGeometry relative="1" as="geometry"/>
                </mxCell>
                <mxCell id="42KRZFq9cMdBP3T2XgEV-53" value="Guess Strategy" style="ellipse;whiteSpace=wrap;html=1;" parent="2" vertex="1">
                    <mxGeometry x="105.5" y="187" width="80" height="80" as="geometry"/>
                </mxCell>
                <mxCell id="17" style="edgeStyle=none;html=1;exitX=0.5;exitY=0;exitDx=0;exitDy=0;entryX=0.5;entryY=1;entryDx=0;entryDy=0;" edge="1" parent="2" source="42KRZFq9cMdBP3T2XgEV-57" target="42KRZFq9cMdBP3T2XgEV-53">
                    <mxGeometry relative="1" as="geometry"/>
                </mxCell>
                <mxCell id="42KRZFq9cMdBP3T2XgEV-57" value="Print Lower" style="whiteSpace=wrap;html=1;" parent="2" vertex="1">
                    <mxGeometry x="85.5" y="357" width="120" height="60" as="geometry"/>
                </mxCell>
                <mxCell id="42KRZFq9cMdBP3T2XgEV-46" value="" style="edgeStyle=orthogonalEdgeStyle;rounded=0;orthogonalLoop=1;jettySize=auto;html=1;" parent="3" source="15" target="42KRZFq9cMdBP3T2XgEV-45" edge="1">
                    <mxGeometry relative="1" as="geometry"/>
                </mxCell>
                <mxCell id="42KRZFq9cMdBP3T2XgEV-62" value="" style="edgeStyle=orthogonalEdgeStyle;rounded=0;orthogonalLoop=1;jettySize=auto;html=1;" parent="3" source="42KRZFq9cMdBP3T2XgEV-49" target="42KRZFq9cMdBP3T2XgEV-61" edge="1">
                    <mxGeometry relative="1" as="geometry"/>
                </mxCell>
                <mxCell id="42KRZFq9cMdBP3T2XgEV-49" value="Guess Method" style="shape=hexagon;perimeter=hexagonPerimeter2;whiteSpace=wrap;html=1;fixedSize=1;" parent="3" vertex="1">
                    <mxGeometry x="135" y="227" width="120" height="80" as="geometry"/>
                </mxCell>
                <mxCell id="42KRZFq9cMdBP3T2XgEV-55" style="edgeStyle=orthogonalEdgeStyle;rounded=0;orthogonalLoop=1;jettySize=auto;html=1;entryX=0;entryY=0.5;entryDx=0;entryDy=0;" parent="3" source="42KRZFq9cMdBP3T2XgEV-53" target="42KRZFq9cMdBP3T2XgEV-49" edge="1">
                    <mxGeometry relative="1" as="geometry"/>
                </mxCell>
                <mxCell id="42KRZFq9cMdBP3T2XgEV-61" value="Number Guess" style="ellipse;whiteSpace=wrap;html=1;" parent="3" vertex="1">
                    <mxGeometry x="155" y="387" width="80" height="80" as="geometry"/>
                </mxCell>
                <mxCell id="4" value="" style="swimlane;whiteSpace=wrap" parent="1" vertex="1">
                    <mxGeometry x="840" y="128" width="280" height="570" as="geometry"/>
                </mxCell>
                <mxCell id="42KRZFq9cMdBP3T2XgEV-48" value="" style="edgeStyle=orthogonalEdgeStyle;rounded=0;orthogonalLoop=1;jettySize=auto;html=1;" parent="4" source="42KRZFq9cMdBP3T2XgEV-43" target="42KRZFq9cMdBP3T2XgEV-47" edge="1">
                    <mxGeometry relative="1" as="geometry"/>
                </mxCell>
                <mxCell id="42KRZFq9cMdBP3T2XgEV-43" value="Closer/High Guess" style="whiteSpace=wrap;html=1;" parent="4" vertex="1">
                    <mxGeometry x="80" y="57" width="120" height="60" as="geometry"/>
                </mxCell>
                <mxCell id="42KRZFq9cMdBP3T2XgEV-60" value="" style="edgeStyle=orthogonalEdgeStyle;rounded=0;orthogonalLoop=1;jettySize=auto;html=1;" parent="4" source="42KRZFq9cMdBP3T2XgEV-47" target="42KRZFq9cMdBP3T2XgEV-59" edge="1">
                    <mxGeometry relative="1" as="geometry"/>
                </mxCell>
                <mxCell id="42KRZFq9cMdBP3T2XgEV-47" value="Guess Strategy" style="ellipse;whiteSpace=wrap;html=1;" parent="4" vertex="1">
                    <mxGeometry x="100" y="187" width="80" height="80" as="geometry"/>
                </mxCell>
                <mxCell id="16" style="edgeStyle=none;html=1;exitX=0.5;exitY=0;exitDx=0;exitDy=0;entryX=0.5;entryY=1;entryDx=0;entryDy=0;" edge="1" parent="4" source="42KRZFq9cMdBP3T2XgEV-59" target="42KRZFq9cMdBP3T2XgEV-47">
                    <mxGeometry relative="1" as="geometry"/>
                </mxCell>
                <mxCell id="42KRZFq9cMdBP3T2XgEV-59" value="Print Higher" style="whiteSpace=wrap;html=1;" parent="4" vertex="1">
                    <mxGeometry x="80" y="357" width="120" height="60" as="geometry"/>
                </mxCell>
                <mxCell id="42KRZFq9cMdBP3T2XgEV-44" value="" style="edgeStyle=orthogonalEdgeStyle;rounded=0;orthogonalLoop=1;jettySize=auto;html=1;" parent="1" source="15" target="42KRZFq9cMdBP3T2XgEV-43" edge="1">
                    <mxGeometry relative="1" as="geometry"/>
                </mxCell>
                <mxCell id="42KRZFq9cMdBP3T2XgEV-56" style="edgeStyle=orthogonalEdgeStyle;rounded=0;orthogonalLoop=1;jettySize=auto;html=1;entryX=1;entryY=0.5;entryDx=0;entryDy=0;" parent="1" source="42KRZFq9cMdBP3T2XgEV-47" target="42KRZFq9cMdBP3T2XgEV-49" edge="1">
                    <mxGeometry relative="1" as="geometry"/>
                </mxCell>
            </root>
        </mxGraphModel>
    </diagram>
</mxfile>